<svg width="40" height="40" viewBox="0 0 40 40" fill="none" xmlns="http://www.w3.org/2000/svg">
<path fill-rule="evenodd" clip-rule="evenodd" d="M19.9998 2.70005C16.5152 2.70005 13.0781 2.90498 9.69953 3.30354C8.29378 3.46937 7.1998 4.71699 7.1998 6.2569V34.2308C7.1998 35.9445 8.56137 37.3 10.1998 37.3H29.7998C31.4382 37.3 32.7998 35.9445 32.7998 34.2308V6.2569C32.7998 4.71699 31.7058 3.46937 30.3001 3.30354C26.9215 2.90498 23.4845 2.70005 19.9998 2.70005ZM9.41836 0.920063C12.89 0.510525 16.421 0.300049 19.9998 0.300049C23.5786 0.300049 27.1096 0.510525 30.5813 0.920064C33.2844 1.23894 35.1998 3.59213 35.1998 6.2569V34.2308C35.1998 37.2328 32.8006 39.7001 29.7998 39.7001H10.1998C7.19905 39.7001 4.7998 37.2328 4.7998 34.2308V6.2569C4.7998 3.59213 6.7152 1.23894 9.41836 0.920063ZM11.7998 8.61543C11.7998 7.95269 12.3371 7.41543 12.9998 7.41543H26.9998C27.6625 7.41543 28.1998 7.95269 28.1998 8.61543V12.8847C28.1998 13.5474 27.6625 14.0847 26.9998 14.0847H12.9998C12.3371 14.0847 11.7998 13.5474 11.7998 12.8847V8.61543ZM14.1998 9.81543V11.6847H25.7998V9.81543H14.1998ZM11.7998 18.577C11.7998 17.9142 12.3371 17.377 12.9998 17.377H13.0138C13.6765 17.377 14.2138 17.9142 14.2138 18.577V18.5912C14.2138 19.2539 13.6765 19.7912 13.0138 19.7912H12.9998C12.3371 19.7912 11.7998 19.2539 11.7998 18.5912V18.577ZM16.4619 18.577C16.4619 17.9142 16.9992 17.377 17.6619 17.377H17.6759C18.3387 17.377 18.8759 17.9142 18.8759 18.577V18.5912C18.8759 19.2539 18.3387 19.7912 17.6759 19.7912H17.6619C16.9992 19.7912 16.4619 19.2539 16.4619 18.5912V18.577ZM21.1377 18.577C21.1377 17.9142 21.675 17.377 22.3377 17.377H22.3517C23.0144 17.377 23.5517 17.9142 23.5517 18.577V18.5912C23.5517 19.2539 23.0144 19.7912 22.3517 19.7912H22.3377C21.675 19.7912 21.1377 19.2539 21.1377 18.5912V18.577ZM25.7998 18.577C25.7998 17.9142 26.3371 17.377 26.9998 17.377H27.0138C27.6765 17.377 28.2138 17.9142 28.2138 18.577V18.5912C28.2138 19.2539 27.6765 19.7912 27.0138 19.7912H26.9998C26.3371 19.7912 25.7998 19.2539 25.7998 18.5912V18.577ZM11.7998 22.8462C11.7998 22.1835 12.3371 21.6462 12.9998 21.6462H13.0138C13.6765 21.6462 14.2138 22.1835 14.2138 22.8462V22.8604C14.2138 23.5232 13.6765 24.0604 13.0138 24.0604H12.9998C12.3371 24.0604 11.7998 23.5232 11.7998 22.8604V22.8462ZM16.4619 22.8462C16.4619 22.1835 16.9992 21.6462 17.6619 21.6462H17.6759C18.3387 21.6462 18.8759 22.1835 18.8759 22.8462V22.8604C18.8759 23.5232 18.3387 24.0604 17.6759 24.0604H17.6619C16.9992 24.0604 16.4619 23.5232 16.4619 22.8604V22.8462ZM21.1377 22.8462C21.1377 22.1835 21.675 21.6462 22.3377 21.6462H22.3517C23.0144 21.6462 23.5517 22.1835 23.5517 22.8462V22.8604C23.5517 23.5232 23.0144 24.0604 22.3517 24.0604H22.3377C21.675 24.0604 21.1377 23.5232 21.1377 22.8604V22.8462ZM25.7998 22.8462C25.7998 22.1835 26.3371 21.6462 26.9998 21.6462H27.0138C27.6765 21.6462 28.2138 22.1835 28.2138 22.8462V22.8604C28.2138 23.5232 27.6765 24.0604 27.0138 24.0604H26.9998C26.3371 24.0604 25.7998 23.5232 25.7998 22.8604V22.8462ZM11.7998 27.1154C11.7998 26.4527 12.3371 25.9154 12.9998 25.9154H13.0138C13.6765 25.9154 14.2138 26.4527 14.2138 27.1154V27.1297C14.2138 27.7924 13.6765 28.3297 13.0138 28.3297H12.9998C12.3371 28.3297 11.7998 27.7924 11.7998 27.1297V27.1154ZM16.4619 27.1154C16.4619 26.4527 16.9992 25.9154 17.6619 25.9154H17.6759C18.3387 25.9154 18.8759 26.4527 18.8759 27.1154V27.1297C18.8759 27.7924 18.3387 28.3297 17.6759 28.3297H17.6619C16.9992 28.3297 16.4619 27.7924 16.4619 27.1297V27.1154ZM21.1377 27.1154C21.1377 26.4527 21.675 25.9154 22.3377 25.9154H22.3517C23.0144 25.9154 23.5517 26.4527 23.5517 27.1154V27.1297C23.5517 27.7924 23.0144 28.3297 22.3517 28.3297H22.3377C21.675 28.3297 21.1377 27.7924 21.1377 27.1297V27.1154ZM26.9998 25.9154C27.6625 25.9154 28.1998 26.4527 28.1998 27.1154V31.3847C28.1998 32.0474 27.6625 32.5847 26.9998 32.5847C26.3371 32.5847 25.7998 32.0474 25.7998 31.3847V27.1154C25.7998 26.4527 26.3371 25.9154 26.9998 25.9154ZM11.7998 31.3847C11.7998 30.7219 12.3371 30.1847 12.9998 30.1847H13.0138C13.6765 30.1847 14.2138 30.7219 14.2138 31.3847V31.3989C14.2138 32.0616 13.6765 32.5989 13.0138 32.5989H12.9998C12.3371 32.5989 11.7998 32.0616 11.7998 31.3989V31.3847ZM16.4619 31.3847C16.4619 30.7219 16.9992 30.1847 17.6619 30.1847H17.6759C18.3387 30.1847 18.8759 30.7219 18.8759 31.3847V31.3989C18.8759 32.0616 18.3387 32.5989 17.6759 32.5989H17.6619C16.9992 32.5989 16.4619 32.0616 16.4619 31.3989V31.3847ZM21.1377 31.3847C21.1377 30.7219 21.675 30.1847 22.3377 30.1847H22.3517C23.0144 30.1847 23.5517 30.7219 23.5517 31.3847V31.3989C23.5517 32.0616 23.0144 32.5989 22.3517 32.5989H22.3377C21.675 32.5989 21.1377 32.0616 21.1377 31.3989V31.3847Z" fill="#003057"/>
</svg>
