<svg width="46" height="46" viewBox="0 0 46 46" fill="none" xmlns="http://www.w3.org/2000/svg">
<mask id="mask0_4317_17549" style="mask-type:alpha" maskUnits="userSpaceOnUse" x="0" y="0" width="46" height="46">
<rect width="46" height="46" fill="#D9D9D9"/>
</mask>
<g mask="url(#mask0_4317_17549)">
<path d="M37.1537 39.2916C33.7554 39.2916 30.2514 38.434 26.6417 36.7189C23.032 35.0035 19.6649 32.5805 16.5404 29.45C13.4162 26.3194 10.9964 22.9525 9.28102 19.3491C7.56592 15.7455 6.70837 12.2445 6.70837 8.84629C6.70837 8.23552 6.91026 7.72648 7.31404 7.31919C7.71782 6.9119 8.22238 6.70825 8.82773 6.70825H14.2965C14.7961 6.70825 15.2179 6.87101 15.5619 7.19652C15.906 7.52236 16.148 7.94322 16.2879 8.45913L17.4307 13.5948C17.4971 14.0782 17.4812 14.5126 17.3828 14.8982C17.2844 15.2841 17.0977 15.6085 16.8226 15.8714L12.2998 20.2759C13.1549 21.7431 14.058 23.102 15.009 24.3526C15.96 25.6032 16.9884 26.7778 18.0943 27.8764C19.2884 29.1024 20.5587 30.2218 21.9051 31.2344C23.2519 32.2467 24.6933 33.1669 26.2291 33.9949L30.5781 29.5204C30.8975 29.169 31.2551 28.9325 31.6509 28.8108C32.0467 28.6891 32.4594 28.6602 32.8891 28.724L37.5408 29.749C38.0567 29.8643 38.4776 30.124 38.8034 30.5281C39.129 30.9322 39.2917 31.39 39.2917 31.9014V37.1722C39.2917 37.7776 39.0881 38.2821 38.6808 38.6859C38.2735 39.0897 37.7644 39.2916 37.1537 39.2916ZM11.2125 18.3041L15.1676 14.4669C15.2168 14.418 15.2505 14.3505 15.2687 14.2642C15.2872 14.1783 15.2904 14.0984 15.2783 14.0246L14.2313 9.17788C14.2192 9.07949 14.1792 9.0057 14.1115 8.9565C14.0441 8.90763 13.9612 8.88319 13.8628 8.88319H9.1411C9.06731 8.88319 9.00582 8.90763 8.95662 8.9565C8.90775 9.0057 8.88331 9.06719 8.88331 9.14098C8.91014 10.4705 9.11651 11.8871 9.50239 13.3907C9.88828 14.8947 10.4583 16.5324 11.2125 18.3041ZM28.2857 35.0342C29.5955 35.6782 31.0293 36.1796 32.5872 36.5383C34.1451 36.897 35.5691 37.096 36.859 37.1353C36.9328 37.1353 36.9943 37.1107 37.0435 37.0615C37.0923 37.0124 37.1168 36.9509 37.1168 36.8771V32.174C37.1168 32.0757 37.0923 31.9928 37.0435 31.9254C36.9943 31.8576 36.9205 31.8177 36.8221 31.8056L32.4765 30.91C32.4027 30.8975 32.3382 30.9006 32.2829 30.9191C32.2277 30.9376 32.1694 30.9713 32.108 31.0202L28.2857 35.0342Z" fill="#003057"/>
</g>
</svg>
