<svg width="40" height="40" viewBox="0 0 40 40" fill="none" xmlns="http://www.w3.org/2000/svg">
<path fill-rule="evenodd" clip-rule="evenodd" d="M13.1248 2.70005C11.464 2.70005 10.1998 3.98216 10.1998 5.46433V34.5358C10.1998 36.0179 11.464 37.3 13.1248 37.3H26.8748C28.5356 37.3 29.7998 36.0179 29.7998 34.5358V5.46433C29.7998 3.98216 28.5356 2.70005 26.8748 2.70005H13.1248ZM7.7998 5.46433C7.7998 2.56768 10.2293 0.300049 13.1248 0.300049H26.8748C29.7703 0.300049 32.1998 2.56768 32.1998 5.46433V34.5358C32.1998 37.4324 29.7703 39.7001 26.8748 39.7001H13.1248C10.2293 39.7001 7.7998 37.4324 7.7998 34.5358V5.46433Z" fill="#003057"/>
<path fill-rule="evenodd" clip-rule="evenodd" d="M17.5151 0.516113C18.2055 0.516113 18.7651 1.07576 18.7651 1.76611V2.21919H21.3744V1.76611C21.3744 1.07576 21.934 0.516113 22.6244 0.516113C23.3147 0.516113 23.8744 1.07576 23.8744 1.76611V3.26919C23.8744 4.07001 23.2252 4.71919 22.4244 4.71919H17.7151C16.9143 4.71919 16.2651 4.07 16.2651 3.26919V1.76611C16.2651 1.07576 16.8248 0.516113 17.5151 0.516113Z" fill="#003057"/>
<path fill-rule="evenodd" clip-rule="evenodd" d="M12.7998 12.8H18.1998V15.2H15.1998V18.2H12.7998V12.8ZM21.7998 12.8H27.1998V18.2H24.7998V15.2H21.7998V12.8ZM15.1998 21.8V24.8H18.1998V27.2H12.7998V21.8H15.1998ZM27.1998 21.8V27.2H21.7998V24.8H24.7998V21.8H27.1998Z" fill="#003057"/>
</svg>
