<svg width="40" height="40" viewBox="0 0 40 40" fill="none" xmlns="http://www.w3.org/2000/svg">
<g clip-path="url(#clip0_4192_9760)">
<path d="M35.3066 28.3576V19.2483H21.1719V11.6424C23.8464 11.0978 25.8653 8.72775 25.8653 5.89485C25.8653 2.66071 23.2341 0.029541 20 0.029541C16.7659 0.029541 14.1347 2.66071 14.1347 5.89485C14.1347 8.72775 16.1536 11.0978 18.8281 11.6424V19.2483H4.69344V28.3576C2.01891 28.902 0 31.2721 0 34.105C0 37.3392 2.63117 39.9703 5.86531 39.9703C9.09945 39.9703 11.7306 37.3392 11.7306 34.105C11.7306 31.2721 9.71172 28.902 7.03719 28.3575V21.592H18.8281V28.3575C16.1536 28.902 14.1347 31.272 14.1347 34.105C14.1347 37.3392 16.7659 39.9703 20 39.9703C23.2341 39.9703 25.8653 37.3392 25.8653 34.105C25.8653 31.2721 23.8464 28.902 21.1719 28.3575V21.592H32.9628V28.3575C30.2883 28.902 28.2694 31.272 28.2694 34.105C28.2694 37.3392 30.9005 39.9703 34.1347 39.9703C37.3688 39.9703 40 37.3392 40 34.105C40 31.2721 37.9811 28.902 35.3066 28.3576ZM16.4784 5.89485C16.4784 3.95306 18.0582 2.37329 20 2.37329C21.9418 2.37329 23.5216 3.95306 23.5216 5.89485C23.5216 7.83665 21.9418 9.41642 20 9.41642C18.0582 9.41642 16.4784 7.83665 16.4784 5.89485ZM9.38688 34.105C9.38688 36.0468 7.80711 37.6266 5.86531 37.6266C3.92352 37.6266 2.34375 36.0468 2.34375 34.105C2.34375 32.1632 3.92352 30.5834 5.86531 30.5834C7.80711 30.5834 9.38688 32.1632 9.38688 34.105ZM23.5216 34.105C23.5216 36.0468 21.9418 37.6266 20 37.6266C18.0582 37.6266 16.4784 36.0468 16.4784 34.105C16.4784 32.1632 18.0582 30.5834 20 30.5834C21.9418 30.5834 23.5216 32.1632 23.5216 34.105ZM34.1347 37.6266C32.1929 37.6266 30.6131 36.0468 30.6131 34.105C30.6131 32.1632 32.1929 30.5834 34.1347 30.5834C36.0765 30.5834 37.6562 32.1632 37.6562 34.105C37.6562 36.0468 36.0765 37.6266 34.1347 37.6266Z" fill="#07305B"/>
</g>
<defs>
<clipPath id="clip0_4192_9760">
<rect width="40" height="40" fill="white"/>
</clipPath>
</defs>
</svg>
