<svg width="40" height="40" viewBox="0 0 40 40" fill="none" xmlns="http://www.w3.org/2000/svg">
<g clip-path="url(#clip0_4192_9771)">
<path d="M28.2842 0H11.7158L0 11.7158V28.2842L11.7158 40H28.2842L40 28.2842V11.7158L28.2842 0ZM37.6562 27.3134L27.3134 37.6562H12.6866L2.34375 27.3134V12.6866L12.6866 2.34375H27.3135L37.6562 12.6866V27.3134Z" fill="#07305B"/>
<path d="M10.625 22.9688H12.9688V21.3281H13.9844V18.9844H12.9688V12.5H9.99516L6.25 19.6093V21.3281H10.625V22.9688ZM9.22828 18.9844L10.625 16.333V18.9844H9.22828Z" fill="#07305B"/>
<path d="M25.9375 21.3281H30.3125V22.9688H32.6562V21.3281H33.6719V18.9844H32.6562V12.5H29.6827L25.9375 19.6093V21.3281ZM30.3125 16.333V18.9844H28.9158L30.3125 16.333Z" fill="#07305B"/>
<path d="M20.0001 23.4137C21.9385 23.4135 23.5156 21.8192 23.5156 19.8596V16.0488C23.5156 14.0892 21.9385 12.4949 20.0002 12.4946H19.9998C18.0615 12.4949 16.4844 14.0892 16.4844 16.0488V19.8596C16.4844 21.8192 18.0615 23.4135 20.0001 23.4137ZM18.8281 16.0488C18.8281 15.3815 19.3538 14.8385 20 14.8384C20.6462 14.8385 21.1719 15.3815 21.1719 16.0488V19.8596C21.1719 20.5269 20.6462 21.0699 20.0001 21.0699C19.3539 21.0699 18.8281 20.5269 18.8281 19.8596V16.0488Z" fill="#07305B"/>
<path d="M10.3906 27.1875H29.6094V29.5312H10.3906V27.1875Z" fill="#07305B"/>
</g>
<defs>
<clipPath id="clip0_4192_9771">
<rect width="40" height="40" fill="white"/>
</clipPath>
</defs>
</svg>
