<svg width="40" height="40" viewBox="0 0 40 40" fill="none" xmlns="http://www.w3.org/2000/svg">
<path d="M18.977 29.5H21.246V18H18.977V29.5ZM19.999 14.8C20.383 14.8 20.7062 14.674 20.9685 14.422C21.2305 14.1697 21.3615 13.8522 21.3615 13.4695C21.3615 13.0712 21.2307 12.7395 20.969 12.4745C20.7073 12.2095 20.3847 12.077 20.001 12.077C19.6043 12.077 19.278 12.2095 19.022 12.4745C18.7663 12.7395 18.6385 13.0712 18.6385 13.4695C18.6385 13.8522 18.7693 14.1697 19.031 14.422C19.2927 14.674 19.6153 14.8 19.999 14.8ZM20.0165 39C17.3848 39 14.92 38.5013 12.622 37.504C10.3237 36.5067 8.311 35.1448 6.584 33.4185C4.857 31.6922 3.4945 29.6792 2.4965 27.3795C1.49883 25.0802 1 22.6132 1 19.9785C1 17.3565 1.49867 14.892 2.496 12.585C3.49333 10.278 4.85517 8.26933 6.5815 6.559C8.30783 4.84867 10.3208 3.4945 12.6205 2.4965C14.9198 1.49883 17.3868 1 20.0215 1C22.6435 1 25.108 1.49867 27.415 2.496C29.722 3.49333 31.7307 4.84683 33.441 6.5565C35.1513 8.26617 36.5055 10.2767 37.5035 12.588C38.5012 14.8993 39 17.3645 39 19.9835C39 22.6152 38.5013 25.08 37.504 27.378C36.5067 29.6763 35.1532 31.6858 33.4435 33.4065C31.7338 35.1275 29.7233 36.49 27.412 37.494C25.1007 38.498 22.6355 39 20.0165 39ZM20.025 36.7305C24.6647 36.7305 28.6088 35.1012 31.8575 31.8425C35.1062 28.5835 36.7305 24.6277 36.7305 19.975C36.7305 15.3353 35.1093 11.3912 31.867 8.1425C28.6247 4.89383 24.669 3.2695 20 3.2695C15.364 3.2695 11.4165 4.89067 8.1575 8.133C4.89883 11.3753 3.2695 15.331 3.2695 20C3.2695 24.636 4.89883 28.5835 8.1575 31.8425C11.4165 35.1012 15.3723 36.7305 20.025 36.7305Z" fill="#003057"/>
</svg>
