<svg width="40" height="40" viewBox="0 0 40 40" fill="none" xmlns="http://www.w3.org/2000/svg">
<g clip-path="url(#clip0_4192_9758)">
<path d="M0.000693339 6.38582L5.81222 12.2122L8.76068 13.863L13.9454 19.0478L1.41363 31.5803C-0.470938 33.4845 -0.471407 36.6666 1.4134 38.5697C3.30688 40.4816 6.49854 40.4711 8.40256 38.5697L20.9346 26.0369L22.3822 27.4846L28.7133 37.3124C30.7698 40.4556 35.4887 40.9319 38.155 38.2572C40.9904 35.413 40.4825 30.9256 37.146 28.7729L27.7523 22.1495L26.2872 20.6844C30.0001 21.8253 34.1692 20.7366 36.945 17.9608C38.389 16.5168 39.4407 14.7146 39.8016 12.7127C40.1558 10.7488 40.0426 8.75367 39.4084 6.91253L38.7871 5.19131L34.65 9.22194L31.5677 8.34188L30.7881 5.23248L34.8992 1.25233C33.0984 0.58445 31.3588 -0.0177257 29.4004 0.000398936C26.6531 0.0259453 23.9662 1.09366 22.0225 3.03745C19.246 5.8138 18.1574 9.98231 19.2982 13.6951L14.1136 8.51015L12.4765 5.54802L6.92462 0.000555183L0.000693339 6.38582ZM6.74541 36.9126C5.74511 37.9128 4.07116 37.9129 3.07071 36.9126C2.06972 35.9117 2.06972 34.2383 3.07079 33.2378L15.6027 20.7051L19.2767 24.3805L6.74541 36.9126ZM35.8601 30.7325C37.9857 32.0915 38.3154 34.7819 36.4979 36.6002C34.8899 38.2077 31.9262 37.8909 30.6778 36.0343L24.7966 26.9047L27.1258 24.5755L35.8162 30.703L35.8601 30.7325ZM25.3375 23.0493L23.2995 25.0873L10.418 12.2059L7.46828 10.5538L3.57422 6.66027L6.92454 3.30994L10.8127 7.19862L12.4634 10.1743L25.3375 23.0493ZM20.9554 15.3524L22.113 14.1948C21.5401 12.725 21.1561 11.2793 21.3162 9.68287C21.5043 7.80767 22.3468 6.02763 23.6797 4.69476C25.464 2.9105 27.9569 2.07169 30.4028 2.34363L28.1856 4.49008L29.6232 10.2243L35.308 11.8473L37.6396 9.58982C37.9067 12.0331 37.066 14.5253 35.2878 16.3036C33.9551 17.6362 32.175 18.4783 30.3 18.6664C28.7041 18.8264 27.2575 18.4423 25.7877 17.8694L24.63 19.0271L20.9554 15.3524Z" fill="#07305B"/>
</g>
<defs>
<clipPath id="clip0_4192_9758">
<rect width="40" height="40" fill="white"/>
</clipPath>
</defs>
</svg>
