<svg width="40" height="40" viewBox="0 0 40 40" fill="none" xmlns="http://www.w3.org/2000/svg">
<g clip-path="url(#clip0_4192_9778)">
<path d="M20 9.45312C14.6152 9.45312 10.2344 13.834 10.2344 19.2188C10.2344 21.7752 11.2155 24.1923 12.9972 26.025C14.4902 27.5608 15.3125 29.6256 15.3125 31.8392V37.6562H17.6562V40H22.3438V37.6562H24.6875V31.8392C24.6875 29.6257 25.5098 27.5609 27.0028 26.0251C28.7845 24.1923 29.7656 21.7752 29.7656 19.2188C29.7656 13.834 25.3848 9.45312 20 9.45312ZM22.3438 35.3125H17.6562V32.9688H22.3438V35.3125ZM25.3223 24.3913C23.6795 26.0811 22.6687 28.2607 22.4103 30.625H17.5897C17.3313 28.2608 16.3205 26.0811 14.6777 24.3913C13.3238 22.9986 12.5781 21.1616 12.5781 19.2188C12.5781 15.1263 15.9076 11.7969 20 11.7969C24.0924 11.7969 27.4219 15.1263 27.4219 19.2188C27.4219 21.1616 26.6763 22.9986 25.3223 24.3913Z" fill="#07305B"/>
<path d="M39.2188 18.0469H33.75V20.3906H39.2188V18.0469Z" fill="#07305B"/>
<path d="M34.4183 6.45707L32.761 4.7998L28.8941 8.6667L30.5514 10.324L34.4183 6.45707Z" fill="#07305B"/>
<path d="M21.1719 0H18.8281V5.46875H21.1719V0Z" fill="#07305B"/>
<path d="M11.1059 8.66695L7.23901 4.80005L5.58175 6.45731L9.44865 10.3242L11.1059 8.66695Z" fill="#07305B"/>
<path d="M6.25 18.0469H0.78125V20.3906H6.25V18.0469Z" fill="#07305B"/>
<path d="M5.58126 31.9804L7.23853 33.6377L11.1054 29.7708L9.44816 28.1135L5.58126 31.9804Z" fill="#07305B"/>
<path d="M28.8941 29.7713L32.761 33.6382L34.4183 31.9809L30.5514 28.114L28.8941 29.7713Z" fill="#07305B"/>
</g>
<defs>
<clipPath id="clip0_4192_9778">
<rect width="40" height="40" fill="white"/>
</clipPath>
</defs>
</svg>
