<svg width="46" height="46" viewBox="0 0 46 46" fill="none" xmlns="http://www.w3.org/2000/svg">
<mask id="mask0_4317_17552" style="mask-type:alpha" maskUnits="userSpaceOnUse" x="0" y="0" width="46" height="46">
<rect width="46" height="46" fill="#D9D9D9"/>
</mask>
<g mask="url(#mask0_4317_17552)">
<path d="M23.0091 22.392C23.868 22.392 24.6004 22.0861 25.206 21.4744C25.8117 20.8627 26.1145 20.1273 26.1145 19.2683C26.1145 18.4093 25.8087 17.677 25.1969 17.0714C24.5852 16.4657 23.8498 16.1629 22.9909 16.1629C22.1319 16.1629 21.3995 16.4687 20.7939 17.0805C20.1882 17.6922 19.8854 18.4276 19.8854 19.2865C19.8854 20.1452 20.1912 20.8775 20.803 21.4835C21.4147 22.0892 22.1501 22.392 23.0091 22.392ZM23 38.3444C27.0029 34.774 30.0523 31.3695 32.1482 28.131C34.2444 24.8921 35.2925 22.0625 35.2925 19.6421C35.2925 15.9429 34.1176 12.9024 31.7677 10.5207C29.4179 8.13889 26.4953 6.948 23 6.948C19.5046 6.948 16.582 8.13889 14.2322 10.5207C11.8823 12.9024 10.7074 15.9429 10.7074 19.6421C10.7074 22.0625 11.7732 24.8921 13.9049 28.131C16.0365 31.3695 19.0682 34.774 23 38.3444ZM23 41.2266C18.1763 37.047 14.5593 33.1573 12.1488 29.5575C9.73822 25.9573 8.53296 22.6522 8.53296 19.6421C8.53296 15.2191 9.96359 11.6382 12.8249 8.89964C15.6864 6.16105 19.0781 4.79175 23 4.79175C26.9218 4.79175 30.3135 6.16105 33.1751 8.89964C36.0363 11.6382 37.467 15.2191 37.467 19.6421C37.467 22.6522 36.2617 25.9573 33.8512 29.5575C31.4406 33.1573 27.8236 37.047 23 41.2266Z" fill="#003057"/>
</g>
</svg>
