<svg width="40" height="40" viewBox="0 0 40 40" fill="none" xmlns="http://www.w3.org/2000/svg">
<g clip-path="url(#clip0_4192_9795)">
<path d="M19.9999 6.65723C12.6428 6.65723 6.65723 12.6427 6.65723 19.9999C6.65723 27.3571 12.6428 33.3425 19.9999 33.3425C27.357 33.3425 33.3425 27.3571 33.3425 19.9999C33.3425 12.6427 27.357 6.65723 19.9999 6.65723ZM19.9999 30.9988C13.9351 30.9988 9.00098 26.0647 9.00098 19.9999C9.00098 13.935 13.9351 9.00098 19.9999 9.00098C26.0646 9.00098 30.9987 13.935 30.9987 19.9999C30.9987 26.0647 26.0646 30.9988 19.9999 30.9988Z" fill="#07305B"/>
<path d="M39.8105 17.2479L39.7073 16.4976L37.8925 15.9629C37.6448 14.8611 37.2954 13.7846 36.8489 12.748L38.0031 11.2483L37.6462 10.5808C36.7774 8.95644 35.6875 7.45855 34.4066 6.12848L33.8821 5.58387L32.0993 6.21816C31.251 5.47277 30.3366 4.80746 29.3684 4.23105L29.4209 2.33809L28.7414 2.00738C27.0816 1.19957 25.3191 0.627227 23.503 0.306289L22.7591 0.174805L21.6881 1.73809C20.5643 1.6352 19.4358 1.6352 18.312 1.73809L17.2409 0.174805L16.4971 0.306289C14.6809 0.627227 12.9185 1.19965 11.2587 2.00738L10.5792 2.33809L10.6316 4.23105C9.66344 4.80738 8.74906 5.47277 7.9007 6.21816L6.11789 5.58387L5.59336 6.12848C4.31266 7.45855 3.22266 8.95652 2.35391 10.5809L1.99687 11.2484L3.15117 12.7481C2.70469 13.7846 2.35523 14.8612 2.10758 15.963L0.292734 16.4977L0.189375 17.2479C0.06375 18.1604 0 19.0863 0 20C0 20.9136 0.06375 21.8395 0.189375 22.7521L0.292734 23.5023L2.10758 24.0369C2.35516 25.1387 2.70469 26.2154 3.15117 27.2518L1.99687 28.7515L2.35391 29.419C3.22273 31.0434 4.31266 32.5414 5.59344 33.8713L6.11797 34.4159L7.9007 33.7816C8.74898 34.5269 9.66344 35.1923 10.6316 35.7687L10.5792 37.6617L11.2587 37.9924C12.9185 38.8002 14.6809 39.3725 16.4971 39.6935L17.2409 39.825L18.312 38.2617C19.4358 38.3646 20.5643 38.3646 21.6881 38.2617L22.7591 39.825L23.503 39.6935C25.3191 39.3725 27.0816 38.8002 28.7414 37.9924L29.4209 37.6617L29.3684 35.7687C30.3366 35.1924 31.251 34.527 32.0993 33.7816L33.8821 34.4159L34.4066 33.8713C35.6875 32.5414 36.7774 31.0434 37.6462 29.419L38.0031 28.7515L36.8489 27.2518C37.2955 26.2153 37.6448 25.1388 37.8925 24.0369L39.7073 23.5023L39.8105 22.7521C39.9363 21.8395 40 20.9136 40 20C40 19.0863 39.9363 18.1604 39.8105 17.2479ZM37.5755 21.6869L35.8623 22.1916L35.7325 22.9009C35.4788 24.2867 35.0418 25.6329 34.4338 26.9021L34.1223 27.5521L35.2116 28.9675C34.6389 29.937 33.9742 30.8504 33.2266 31.6952L31.543 31.0962L31.0211 31.5925C29.9988 32.5648 28.8539 33.3978 27.6184 34.0684L26.9861 34.4116L27.0355 36.1984C26.0021 36.6479 24.9284 36.9966 23.8288 37.2398L22.8179 35.764L22.1049 35.8577C21.4084 35.9492 20.7002 35.9956 20 35.9956C19.2998 35.9956 18.5916 35.9492 17.8952 35.8577L17.1822 35.764L16.1712 37.2398C15.0716 36.9966 13.9979 36.6479 12.9645 36.1984L13.0139 34.4116L12.3816 34.0684C11.1462 33.3979 10.0013 32.5648 8.97898 31.5925L8.45711 31.0962L6.77352 31.6952C6.02586 30.8504 5.36117 29.9371 4.78844 28.9675L5.87781 27.5521L5.56641 26.9021C4.95828 25.6329 4.52133 24.2867 4.26758 22.9009L4.13766 22.1916L2.42453 21.6869C2.37086 21.1242 2.34375 20.5593 2.34375 20C2.34375 19.4405 2.37086 18.8757 2.42445 18.313L4.13758 17.8083L4.2675 17.099C4.52125 15.7132 4.9582 14.3671 5.56633 13.0979L5.87773 12.4479L4.78836 11.0325C5.36117 10.0629 6.02578 9.14957 6.77344 8.30473L8.45703 8.90371L8.97891 8.40738C10.0013 7.43512 11.1461 6.60215 12.3816 5.93152L13.0138 5.58832L12.9644 3.80152C13.9978 3.35199 15.0715 3.00332 16.1711 2.76012L17.1821 4.2359L17.8951 4.14223C18.5916 4.05074 19.2997 4.00434 19.9999 4.00434C20.7002 4.00434 21.4083 4.05074 22.1048 4.14223L22.8178 4.2359L23.8288 2.76012C24.9284 3.00332 26.002 3.35199 27.0355 3.80152L26.986 5.58832L27.6184 5.93152C28.8538 6.60207 29.9987 7.43512 31.021 8.40738L31.5429 8.90371L33.2265 8.30473C33.9741 9.14957 34.6388 10.0629 35.2116 11.0325L34.1223 12.4479L34.4337 13.0978C35.0417 14.3671 35.4787 15.7132 35.7324 17.0989L35.8623 17.8082L37.5755 18.3129C37.6291 18.8757 37.6562 19.4405 37.6562 20C37.6562 20.5593 37.6291 21.1242 37.5755 21.6869Z" fill="#07305B"/>
<path d="M18.8281 25.4395H21.1719V27.7832H18.8281V25.4395Z" fill="#07305B"/>
<path d="M18.8281 12.2166H21.1719V22.9755H18.8281V12.2166Z" fill="#07305B"/>
</g>
<defs>
<clipPath id="clip0_4192_9795">
<rect width="40" height="40" fill="white"/>
</clipPath>
</defs>
</svg>
