<svg width="40" height="40" viewBox="0 0 40 40" fill="none" xmlns="http://www.w3.org/2000/svg">
<g clip-path="url(#clip0_4192_9752)">
<path d="M20 8.24487C13.5182 8.24487 8.24487 13.5182 8.24487 20C8.24487 26.4817 13.5182 31.755 20 31.755C26.4817 31.755 31.755 26.4817 31.755 20C31.755 13.5182 26.4817 8.24487 20 8.24487ZM20 29.4113C14.8105 29.4113 10.5886 25.1893 10.5886 20C10.5886 14.8106 14.8105 10.5886 20 10.5886C25.1894 10.5886 29.4113 14.8105 29.4113 20C29.4113 25.1894 25.1894 29.4113 20 29.4113Z" fill="#07305B"/>
<path d="M19.2205 18.5011C19.2205 18.2394 19.4604 18.0214 20.2126 18.0214C20.8776 18.0214 21.5862 18.2067 22.3384 18.5883L23.1124 16.7241C22.491 16.3752 21.7061 16.1681 20.8994 16.0918V14.9253H19.3623V16.1136C17.5744 16.3643 16.6805 17.4 16.6805 18.6319C16.6805 21.4772 20.8994 20.7032 20.8994 21.6625C20.8994 21.9241 20.6377 22.0768 19.9073 22.0768C19.0679 22.0768 18.1086 21.8043 17.3891 21.379L16.5605 23.2541C17.2147 23.6575 18.2721 23.9519 19.3623 24.0172V25.1729H20.8994V23.9628C22.5891 23.6684 23.4395 22.6437 23.4395 21.4663C23.4395 18.6537 19.2205 19.4168 19.2205 18.5011Z" fill="#07305B"/>
<path d="M39.8811 17.8267L37.5499 18.0843C37.9858 22.0281 37.0523 26.0596 34.9212 29.4363C32.7606 32.8596 29.4525 35.4544 25.6062 36.7428C23.7649 37.3595 21.8733 37.6549 19.9999 37.6548C14.592 37.6545 9.34363 35.191 5.95199 30.8853H8.27418V28.5398H2.00293V35.0999H4.3484V32.6295C6.58496 35.3528 9.54902 37.4763 12.9143 38.729C15.1883 39.5756 17.5871 39.9999 19.9829 39.9999C22.1393 39.9999 24.2933 39.656 26.3511 38.9668C30.7084 37.5073 34.4564 34.5672 36.9045 30.6881C39.3181 26.8639 40.3753 22.2963 39.8811 17.8267Z" fill="#07305B"/>
<path d="M4.9964 10.7106C7.15679 7.22007 10.4942 4.57835 14.3938 3.27202C18.1914 2.00007 22.1863 2.04046 25.9471 3.38921C28.8839 4.44249 31.5021 6.27101 33.4994 8.63335L31.2642 8.63257L31.2634 10.978L37.6042 10.9801V4.71335H35.2587V7.08249C33.0002 4.42515 30.048 2.3682 26.7389 1.1814C22.4775 -0.346805 17.951 -0.392976 13.649 1.04804C9.23124 2.5278 5.45015 5.52101 3.0021 9.47616C0.585928 13.3799 -0.42251 18.0235 0.16249 22.5516L2.48858 22.251C1.97241 18.2559 2.86304 14.1574 4.9964 10.7106Z" fill="#07305B"/>
</g>
<defs>
<clipPath id="clip0_4192_9752">
<rect width="40" height="40" fill="white"/>
</clipPath>
</defs>
</svg>
