<svg width="40" height="40" viewBox="0 0 40 40" fill="none" xmlns="http://www.w3.org/2000/svg">
<path d="M30.2051 19.8238L24.5507 14.0528L26.0835 12.5017L30.2051 16.6726L38.4483 8.3308L40 9.93095L30.2051 19.8238ZM14.5469 19.0225C12.68 19.0225 11.141 18.4097 9.92969 17.1839C8.71842 15.9578 8.11279 14.3971 8.11279 12.5017C8.11279 10.6063 8.71842 9.04885 9.92969 7.82931C11.141 6.60977 12.68 6 14.5469 6C16.4137 6 17.9528 6.60977 19.164 7.82931C20.3753 9.04885 20.9809 10.6063 20.9809 12.5017C20.9809 14.3971 20.3753 15.9578 19.164 17.1839C17.9528 18.4097 16.4137 19.0225 14.5469 19.0225ZM0 34V30.2742C0 29.2928 0.257964 28.3927 0.773893 27.5739C1.28982 26.7547 2.02525 26.135 2.98017 25.7146C5.20584 24.7231 7.22704 24.0129 9.04379 23.584C10.8605 23.1548 12.6918 22.9402 14.5377 22.9402C16.3838 22.9402 18.2133 23.1548 20.0262 23.584C21.839 24.0129 23.8582 24.7231 26.0835 25.7146C27.0384 26.1677 27.7789 26.7956 28.3048 27.5984C28.8308 28.4009 29.0937 29.2928 29.0937 30.2742V34H0ZM2.20094 31.7727H26.8928V30.2742C26.8928 29.7635 26.7381 29.2741 26.4287 28.806C26.1191 28.3379 25.6969 27.9705 25.1622 27.7039C23.091 26.7251 21.2591 26.0576 19.6664 25.7014C18.074 25.3455 16.3675 25.1675 14.5469 25.1675C12.7262 25.1675 11.0117 25.3455 9.40309 25.7014C7.79421 26.0576 5.96034 26.7251 3.90147 27.7039C3.35451 27.9705 2.93426 28.3379 2.64074 28.806C2.34754 29.2741 2.20094 29.7635 2.20094 30.2742V31.7727ZM14.5469 16.7953C15.7578 16.7953 16.7661 16.3877 17.5716 15.5725C18.3775 14.7573 18.7805 13.7369 18.7805 12.5115C18.7805 11.2858 18.3775 10.2653 17.5716 9.45007C16.7661 8.63486 15.7578 8.22726 14.5469 8.22726C13.3359 8.22726 12.3277 8.63486 11.5221 9.45007C10.7162 10.2653 10.3132 11.2858 10.3132 12.5115C10.3132 13.7369 10.7162 14.7573 11.5221 15.5725C12.3277 16.3877 13.3359 16.7953 14.5469 16.7953Z" fill="#003057"/>
</svg>
