<svg width="40" height="40" viewBox="0 0 40 40" fill="none" xmlns="http://www.w3.org/2000/svg">
<g clip-path="url(#clip0_4192_9762)">
<path d="M33.4485 25.0215V10.6172L21.2225 3.59497L8.99658 10.6172V25.0215L21.2225 32.0436L33.4485 25.0215ZM22.394 28.6688V18.325L31.1056 13.3215V23.6654L22.394 28.6688ZM29.9269 11.2964L21.2225 16.2958L12.5181 11.2964L21.2225 6.29692L29.9269 11.2964ZM11.3396 13.3214L20.051 18.3249V28.6687L11.3396 23.6652V13.3214Z" fill="#07305B"/>
<path d="M35.898 31.7946L34.2412 33.4513L35.5151 34.7251H5.27344V4.48646L6.54727 5.76021L8.20398 4.10357L4.10195 0.00146484L0 4.10357L1.65672 5.76021L2.93047 4.48646V37.0681H35.5151L34.2412 38.3419L35.898 39.9986L40 35.8966L35.898 31.7946Z" fill="#07305B"/>
</g>
<defs>
<clipPath id="clip0_4192_9762">
<rect width="40" height="40" fill="white"/>
</clipPath>
</defs>
</svg>
