<svg width="40" height="40" viewBox="0 0 40 40" fill="none" xmlns="http://www.w3.org/2000/svg">
<g clip-path="url(#clip0_4192_9750)">
<path d="M34.1422 5.85785C30.365 2.08038 25.3421 0 20 0C14.6579 0 9.63501 2.08038 5.85785 5.85785C2.08038 9.63501 0 14.6579 0 20C0 25.3421 2.08038 30.365 5.85785 34.1422C9.63501 37.9196 14.6579 40 20 40C25.3421 40 30.365 37.9196 34.1422 34.1422C37.9196 30.365 40 25.3421 40 20C40 14.6579 37.9196 9.63501 34.1422 5.85785ZM37.2852 16.3892C37.5281 17.5546 37.6562 18.7625 37.6562 20C37.6562 21.3773 37.4976 22.7179 37.1976 24.0054L30.3281 21.7142C30.4211 21.1557 30.4688 20.5835 30.4688 20C30.4688 19.5563 30.4407 19.119 30.3867 18.6899L37.2852 16.3892ZM36.6531 14.129L29.8328 16.4041C29.8328 16.4041 29.8328 16.4041 29.8328 16.4038C28.8046 13.6032 26.6135 11.3602 23.8464 10.2634L26.1227 3.43842C31.0251 5.25635 34.9078 9.1922 36.6531 14.129ZM20 28.125C15.5194 28.125 11.875 24.4806 11.875 20C11.875 15.5194 15.5194 11.875 20 11.875C24.4806 11.875 28.125 15.5194 28.125 20C28.125 24.4806 24.4806 28.125 20 28.125ZM23.8742 2.77252L21.5799 9.65088C21.5799 9.65088 21.5799 9.65088 21.5796 9.65088C21.0641 9.57184 20.5368 9.53125 20 9.53125C19.4632 9.53125 18.9359 9.57184 18.4204 9.65088C18.4201 9.65088 18.4201 9.65088 18.4201 9.65088L16.1258 2.77252C17.3727 2.49146 18.6694 2.34375 20 2.34375C21.3306 2.34375 22.6273 2.49146 23.8742 2.77252ZM13.8773 3.43842L16.1536 10.2634C13.3865 11.3602 11.1954 13.6032 10.1672 16.4038V16.4041L3.34686 14.129C5.09216 9.1922 8.97491 5.25635 13.8773 3.43842ZM2.80243 24.0054C2.50244 22.7179 2.34375 21.3773 2.34375 20C2.34375 18.7625 2.47192 17.5546 2.71484 16.3892V16.3889L9.61334 18.6899C9.55933 19.119 9.53125 19.5563 9.53125 20C9.53125 20.5835 9.57886 21.1557 9.67194 21.7142L2.80243 24.0054ZM3.48511 26.2485L10.3134 23.9706C11.4105 26.6379 13.5782 28.7555 16.2787 29.7852L14.003 36.6077C9.16809 34.8563 5.30853 31.0501 3.48511 26.2485ZM16.2573 37.2571L18.5547 30.3696C19.0274 30.4352 19.5093 30.4688 20 30.4688C20.4907 30.4688 20.9726 30.4352 21.4453 30.3696L23.7427 37.2571C22.5357 37.5186 21.2836 37.6562 20 37.6562C18.7164 37.6562 17.4643 37.5186 16.2573 37.2571ZM25.997 36.6077L23.7213 29.7852C26.4218 28.7555 28.5895 26.6379 29.6866 23.9709L36.5149 26.2485C34.6915 31.0501 30.8319 34.8563 25.997 36.6077Z" fill="#07305B"/>
</g>
<defs>
<clipPath id="clip0_4192_9750">
<rect width="40" height="40" fill="white"/>
</clipPath>
</defs>
</svg>
