<svg width="40" height="40" viewBox="0 0 40 40" fill="none" xmlns="http://www.w3.org/2000/svg">
<g clip-path="url(#clip0_4192_9790)">
<path d="M22.3389 40H40V22.3389H22.3389V40ZM24.6805 24.6805H37.6584V37.6584H24.6805V24.6805Z" fill="#07305B"/>
<path d="M30.4563 19.0872C35.7188 19.0872 40.0001 14.8059 40.0001 9.54346C40.0001 4.28131 35.7188 0 30.4563 0C25.1938 0 20.9128 4.28131 20.9128 9.54376C20.9128 14.8062 25.1942 19.0872 30.4563 19.0872ZM30.4563 2.34161C34.4276 2.34161 37.6584 5.57251 37.6584 9.54376C37.6584 13.515 34.4276 16.7456 30.4563 16.7456C26.485 16.7456 23.2545 13.5147 23.2545 9.54346C23.2545 5.5722 26.4854 2.34161 30.4563 2.34161Z" fill="#07305B"/>
<path d="M0 18.0713H20.5237L10.2618 0L0 18.0713ZM4.02252 15.7297L10.2618 4.74213L16.5012 15.7297H4.02252Z" fill="#07305B"/>
<path d="M4.97253 22.7747L0 31.3874L4.97253 40.0001H14.9176L19.8904 31.3874L14.9176 22.7744H4.97253V22.7747ZM13.5657 37.6584H6.32446L2.70386 31.3874L6.32446 25.116H13.5657L17.1863 31.3874L13.5657 37.6584Z" fill="#07305B"/>
</g>
<defs>
<clipPath id="clip0_4192_9790">
<rect width="40" height="40" fill="white"/>
</clipPath>
</defs>
</svg>
