<svg width="40" height="40" viewBox="0 0 40 40" fill="none" xmlns="http://www.w3.org/2000/svg">
<path d="M40 7.82544H28.6719V1.49731H11.3281V7.82544H0V28.5025H2.16148V38.5025H37.8385V28.5025H40V7.82544ZM18.039 36.1588V27.2505L17.3621 26.9351C15.1649 25.9113 13.7452 23.6847 13.7452 21.2626C13.7452 19.3503 14.6849 17.4625 16.1073 16.3138L17.2691 22.7002H22.7227L23.8825 16.3598C25.3577 17.5302 26.2547 19.3285 26.2547 21.2626C26.2547 23.6847 24.835 25.9113 22.6378 26.9351L21.9609 27.2505V36.1589H18.039V36.1588ZM4.50523 28.5025H15.3637C15.4726 28.5725 15.5827 28.6411 15.6952 28.7064V36.1588H4.50523V28.5025ZM24.3048 28.7064C24.4173 28.6411 24.5274 28.5725 24.6363 28.5025H35.4948V36.1588H24.3048V28.7064ZM27.0601 26.1588C28.0402 24.7443 28.5984 23.0421 28.5984 21.2625C28.5984 17.8797 26.6026 14.7991 23.5138 13.4143L22.1504 12.8032L20.7688 20.3564H19.225L17.8543 12.8215L16.5158 13.3701C13.5045 14.6045 11.4015 17.85 11.4015 21.2625C11.4015 23.0422 11.9598 24.7443 12.9398 26.1588H2.34375V10.1693H37.6562V26.1589H27.0601V26.1588ZM26.3281 3.84114V7.82552H13.6719V3.84114H26.3281Z" fill="#07305B"/>
</svg>
