<svg width="800" height="295" viewBox="0 0 800 295" fill="none" xmlns="http://www.w3.org/2000/svg">
<path d="M400 0.0101205C274.751 -0.233823 149.738 10.9098 26.4959 33.3042C26.4959 33.3042 0 37.466 0 62.1709V231.121C0 254.498 26.4959 259.014 26.4959 259.014C149.566 282.876 274.65 294.737 400 294.433C525.35 294.739 650.435 282.877 773.504 259.014C773.504 259.014 800 254.498 800 231.121V61.7282C800 37.0233 773.504 32.8615 773.504 32.8615C650.249 10.6136 525.236 -0.381864 400 0.0101205Z" fill="#003057"/>
<path d="M135.128 113.706H135.57C139.25 107.115 144.704 101.694 151.31 98.0614C157.916 94.429 165.407 92.7315 172.929 93.1628H180.789V132.655C175.365 129.774 169.251 128.456 163.125 128.848C140.339 128.848 134.775 143.989 134.775 164.267V210.401H94.1476V94.6681H135.128V113.706Z" fill="white"/>
<path d="M318.126 159.485H231.838C231.391 162.976 231.748 166.522 232.881 169.853C234.015 173.183 235.895 176.209 238.377 178.697C240.859 181.186 243.876 183.07 247.198 184.207C250.52 185.343 254.058 185.701 257.539 185.253C261.445 185.601 265.369 184.819 268.844 182.998C272.319 181.177 275.201 178.395 277.146 174.981H316.537C310.001 202.343 284.123 214.739 257.804 214.739C219.562 214.739 190.946 193.045 190.946 152.756C190.946 114.149 217.442 90.772 254.889 90.772C294.987 90.772 318.126 115.654 318.126 155.147V159.485ZM280.061 135.754C278.689 130.484 275.613 125.818 271.314 122.488C267.015 119.158 261.735 117.351 256.303 117.351C250.87 117.351 245.59 119.158 241.291 122.488C236.992 125.818 233.916 130.484 232.545 135.754H280.061Z" fill="white"/>
<path d="M459.085 159.485H372.796C372.349 162.976 372.706 166.522 373.84 169.853C374.973 173.183 376.853 176.209 379.335 178.697C381.817 181.186 384.835 183.07 388.157 184.207C391.479 185.343 395.016 185.701 398.497 185.253C402.389 185.584 406.294 184.793 409.752 182.973C413.21 181.153 416.077 178.38 418.016 174.981H457.495C450.959 202.343 425.082 214.739 398.762 214.739C360.52 214.739 331.904 193.045 331.904 152.756C331.904 114.149 358.4 90.772 395.848 90.772C435.945 90.772 459.085 115.654 459.085 155.147V159.485ZM421.019 135.754C419.648 130.484 416.572 125.818 412.272 122.488C407.973 119.158 402.694 117.351 397.261 117.351C391.828 117.351 386.549 119.158 382.249 122.488C377.95 125.818 374.874 130.484 373.503 135.754H421.019Z" fill="white"/>
<path d="M708.588 159.485H622.388C621.941 162.976 622.298 166.522 623.431 169.853C624.565 173.183 626.445 176.209 628.926 178.697C631.408 181.186 634.426 183.07 637.748 184.207C641.07 185.343 644.608 185.701 648.089 185.253C651.98 185.584 655.885 184.793 659.343 182.973C662.801 181.153 665.669 178.38 667.608 174.981H706.998C700.462 202.343 674.585 214.739 648.266 214.739C610.023 214.739 581.407 193.045 581.407 152.756C581.407 114.149 607.903 90.772 645.351 90.772C685.448 90.772 708.588 115.654 708.588 155.147V159.485ZM670.345 135.754C668.974 130.484 665.898 125.818 661.599 122.488C657.3 119.158 652.02 117.351 646.587 117.351C641.155 117.351 635.875 119.158 631.576 122.488C627.277 125.818 624.201 130.484 622.829 135.754H670.345Z" fill="white"/>
<path d="M563.92 132.39C557.908 127.467 550.477 124.611 542.723 124.243C539.007 124.183 535.317 124.873 531.872 126.272C528.426 127.67 525.297 129.748 522.669 132.383C520.04 135.018 517.967 138.156 516.573 141.61C515.178 145.064 514.49 148.764 514.549 152.49C514.422 156.303 515.086 160.1 516.499 163.642C517.913 167.184 520.044 170.393 522.76 173.065C525.475 175.737 528.714 177.815 532.273 179.166C535.831 180.517 539.63 181.112 543.43 180.914C550.983 180.84 558.256 178.042 563.92 173.033L574.342 201.989C562.856 210.139 549.111 214.474 535.04 214.385C526.919 214.645 518.829 213.275 511.245 210.354C503.66 207.434 496.735 203.022 490.876 197.379C485.017 191.736 480.343 184.975 477.128 177.494C473.913 170.013 472.223 161.964 472.156 153.818C472.002 145.346 473.583 136.931 476.801 129.095C480.018 121.259 484.804 114.167 490.863 108.259C496.922 102.35 504.125 97.7497 512.027 94.742C519.929 91.7344 528.363 90.3832 536.806 90.772C550.471 91.2648 563.659 95.9298 574.607 104.143L563.92 132.39Z" fill="white"/>
</svg>
