<svg width="63" height="16" viewBox="0 0 63 16" fill="none" xmlns="http://www.w3.org/2000/svg">
<path d="M57.3586 4.05203H58.7767V1.57458H60.6565V4.05203H62.3548V5.41063H60.6565V9.82208C60.6565 10.0139 60.662 10.179 60.673 10.3176C60.6949 10.4561 60.7334 10.5733 60.7884 10.6692C60.8543 10.7651 60.9478 10.8397 61.0687 10.893C61.1896 10.9356 61.3545 10.9569 61.5634 10.9569C61.6953 10.9569 61.8272 10.9569 61.9591 10.9569C62.091 10.9463 62.2229 10.9249 62.3548 10.893V12.2995C62.146 12.3208 61.9426 12.3422 61.7447 12.3635C61.5469 12.3848 61.3435 12.3954 61.1346 12.3954C60.64 12.3954 60.2387 12.3528 59.9309 12.2676C59.6341 12.1717 59.3978 12.0385 59.2219 11.868C59.057 11.6868 58.9416 11.4631 58.8756 11.1967C58.8207 10.9303 58.7877 10.6266 58.7767 10.2856V5.41063H57.3586V4.05203Z" fill="#003057"/>
<path d="M51.7962 4.05214H53.5605V5.65049H53.5935C53.6485 5.42672 53.7529 5.20828 53.9068 4.99517C54.0717 4.78205 54.2641 4.59025 54.4839 4.41976C54.7148 4.23861 54.9676 4.09476 55.2424 3.9882C55.5172 3.88165 55.7976 3.82837 56.0834 3.82837C56.3032 3.82837 56.4516 3.8337 56.5286 3.84435C56.6165 3.85501 56.7045 3.86566 56.7924 3.87632V5.63451C56.6605 5.6132 56.5231 5.59721 56.3802 5.58656C56.2483 5.56525 56.1163 5.55459 55.9844 5.55459C55.6656 5.55459 55.3633 5.61852 55.0775 5.74639C54.8027 5.8636 54.5609 6.04475 54.352 6.28983C54.1431 6.52426 53.9783 6.81729 53.8573 7.16893C53.7364 7.52056 53.676 7.92548 53.676 8.38367V12.3156H51.7962V4.05214Z" fill="#003057"/>
<path d="M45.7649 12.5394C45.0834 12.5394 44.4733 12.4328 43.9346 12.2197C43.407 11.996 42.9563 11.6923 42.5825 11.3087C42.2198 10.9251 41.9395 10.4669 41.7416 9.93408C41.5547 9.40129 41.4613 8.81523 41.4613 8.17589C41.4613 7.5472 41.5547 6.96647 41.7416 6.43368C41.9395 5.9009 42.2198 5.4427 42.5825 5.0591C42.9563 4.6755 43.407 4.37714 43.9346 4.16402C44.4733 3.94025 45.0834 3.82837 45.7649 3.82837C46.4465 3.82837 47.0511 3.94025 47.5787 4.16402C48.1174 4.37714 48.5681 4.6755 48.9308 5.0591C49.3046 5.4427 49.5849 5.9009 49.7718 6.43368C49.9696 6.96647 50.0686 7.5472 50.0686 8.17589C50.0686 8.81523 49.9696 9.40129 49.7718 9.93408C49.5849 10.4669 49.3046 10.9251 48.9308 11.3087C48.5681 11.6923 48.1174 11.996 47.5787 12.2197C47.0511 12.4328 46.4465 12.5394 45.7649 12.5394ZM45.7649 11.1009C46.1827 11.1009 46.5454 11.0156 46.8532 10.8451C47.161 10.6746 47.4138 10.4509 47.6117 10.1738C47.8096 9.89678 47.9525 9.58777 48.0404 9.24678C48.1394 8.89515 48.1888 8.53818 48.1888 8.17589C48.1888 7.82425 48.1394 7.47261 48.0404 7.12098C47.9525 6.76934 47.8096 6.46032 47.6117 6.19393C47.4138 5.91688 47.161 5.69311 46.8532 5.52262C46.5454 5.35213 46.1827 5.26689 45.7649 5.26689C45.3472 5.26689 44.9844 5.35213 44.6766 5.52262C44.3689 5.69311 44.116 5.91688 43.9182 6.19393C43.7203 6.46032 43.5719 6.76934 43.4729 7.12098C43.385 7.47261 43.341 7.82425 43.341 8.17589C43.341 8.53818 43.385 8.89515 43.4729 9.24678C43.5719 9.58777 43.7203 9.89678 43.9182 10.1738C44.116 10.4509 44.3689 10.6746 44.6766 10.8451C44.9844 11.0156 45.3472 11.1009 45.7649 11.1009Z" fill="#003057"/>
<path d="M31.6613 4.05214H33.4422V5.17099H33.4751C33.739 4.69148 34.1072 4.3505 34.5799 4.14804C35.0526 3.93493 35.5638 3.82837 36.1134 3.82837C36.784 3.82837 37.3666 3.94558 37.8613 4.18001C38.3669 4.40378 38.7846 4.71812 39.1144 5.12303C39.4442 5.5173 39.6915 5.98082 39.8564 6.5136C40.0213 7.04639 40.1038 7.61647 40.1038 8.22384C40.1038 8.77793 40.0268 9.31605 39.8729 9.83817C39.73 10.3603 39.5047 10.8238 39.1969 11.2287C38.9001 11.623 38.5208 11.9427 38.0591 12.1878C37.5974 12.4222 37.0533 12.5394 36.4267 12.5394C36.1519 12.5394 35.8771 12.5128 35.6022 12.4595C35.3274 12.4169 35.0636 12.3423 34.8108 12.2357C34.5579 12.1291 34.3216 11.9959 34.1017 11.8361C33.8929 11.6656 33.717 11.4685 33.5741 11.2447H33.5411V15.3685H31.6613V4.05214ZM38.224 8.19187C38.224 7.81892 38.1745 7.45663 38.0756 7.10499C37.9767 6.75335 37.8283 6.44434 37.6304 6.17795C37.4325 5.9009 37.1852 5.68246 36.8884 5.52262C36.5916 5.35213 36.2508 5.26689 35.8661 5.26689C35.0746 5.26689 34.4755 5.53328 34.0688 6.06606C33.673 6.59885 33.4751 7.30745 33.4751 8.19187C33.4751 8.60744 33.5246 8.99638 33.6236 9.35867C33.7335 9.71031 33.8929 10.014 34.1017 10.2697C34.3106 10.5255 34.5579 10.7279 34.8437 10.8771C35.1406 11.0263 35.4813 11.1009 35.8661 11.1009C36.2948 11.1009 36.6575 11.0156 36.9543 10.8451C37.2512 10.6746 37.493 10.4562 37.6799 10.1898C37.8777 9.91276 38.0151 9.60375 38.0921 9.26277C38.18 8.91113 38.224 8.55417 38.224 8.19187Z" fill="#003057"/>
<path d="M21.4162 4.05214H23.197V5.17099H23.23C23.4938 4.69148 23.8621 4.3505 24.3348 4.14804C24.8075 3.93493 25.3186 3.82837 25.8683 3.82837C26.5388 3.82837 27.1214 3.94558 27.6161 4.18001C28.1218 4.40378 28.5395 4.71812 28.8693 5.12303C29.1991 5.5173 29.4464 5.98082 29.6113 6.5136C29.7762 7.04639 29.8586 7.61647 29.8586 8.22384C29.8586 8.77793 29.7817 9.31605 29.6278 9.83817C29.4849 10.3603 29.2595 10.8238 28.9517 11.2287C28.6549 11.623 28.2757 11.9427 27.814 12.1878C27.3523 12.4222 26.8081 12.5394 26.1816 12.5394C25.9067 12.5394 25.6319 12.5128 25.3571 12.4595C25.0823 12.4169 24.8185 12.3423 24.5656 12.2357C24.3128 12.1291 24.0764 11.9959 23.8566 11.8361C23.6477 11.6656 23.4718 11.4685 23.3289 11.2447H23.296V15.3685H21.4162V4.05214ZM27.9789 8.19187C27.9789 7.81892 27.9294 7.45663 27.8305 7.10499C27.7315 6.75335 27.5831 6.44434 27.3853 6.17795C27.1874 5.9009 26.94 5.68246 26.6432 5.52262C26.3464 5.35213 26.0057 5.26689 25.6209 5.26689C24.8294 5.26689 24.2303 5.53328 23.8236 6.06606C23.4279 6.59885 23.23 7.30745 23.23 8.19187C23.23 8.60744 23.2795 8.99638 23.3784 9.35867C23.4883 9.71031 23.6477 10.014 23.8566 10.2697C24.0654 10.5255 24.3128 10.7279 24.5986 10.8771C24.8954 11.0263 25.2362 11.1009 25.6209 11.1009C26.0496 11.1009 26.4124 11.0156 26.7092 10.8451C27.006 10.6746 27.2478 10.4562 27.4347 10.1898C27.6326 9.91276 27.77 9.60375 27.8469 9.26277C27.9349 8.91113 27.9789 8.55417 27.9789 8.19187Z" fill="#003057"/>
<path d="M19.2195 12.3155H17.3728V11.1647H17.3398C17.1089 11.5802 16.7627 11.9159 16.301 12.1716C15.8503 12.4167 15.3886 12.5393 14.9159 12.5393C13.7946 12.5393 12.9812 12.2729 12.4755 11.7401C11.9808 11.1966 11.7335 10.3815 11.7335 9.2946V4.052H13.6132V9.11878C13.6132 9.84337 13.7562 10.3548 14.042 10.6532C14.3278 10.9516 14.729 11.1007 15.2457 11.1007C15.6414 11.1007 15.9712 11.0421 16.235 10.9249C16.4988 10.8077 16.7132 10.6532 16.8781 10.4614C17.043 10.2589 17.1584 10.0192 17.2244 9.74214C17.3013 9.46509 17.3398 9.16673 17.3398 8.84706V4.052H19.2195V12.3155Z" fill="#003057"/>
<path d="M2.49238 8.51147C2.49238 8.94835 2.56933 9.3213 2.72323 9.63031C2.87713 9.93933 3.09148 10.1951 3.3663 10.3975C3.64112 10.5893 3.95441 10.7332 4.30618 10.8291C4.66894 10.9143 5.05918 10.9569 5.47691 10.9569C5.92761 10.9569 6.31235 10.909 6.63114 10.8131C6.94993 10.7065 7.20826 10.5733 7.40613 10.4135C7.604 10.2537 7.7469 10.0725 7.83485 9.87007C7.92279 9.65695 7.96676 9.44384 7.96676 9.23073C7.96676 8.79384 7.86233 8.47417 7.65347 8.27171C7.4556 8.0586 7.23574 7.90942 6.9939 7.82418C6.57618 7.675 6.087 7.53647 5.52637 7.40861C4.97674 7.27008 4.29519 7.09426 3.48173 6.88115C2.97606 6.75328 2.55284 6.58812 2.21207 6.38566C1.88228 6.17255 1.61846 5.93812 1.42059 5.68238C1.22272 5.42665 1.07981 5.15493 0.991873 4.86722C0.914924 4.57952 0.876449 4.28649 0.876449 3.98813C0.876449 3.41272 0.997369 2.91723 1.23921 2.50166C1.49204 2.07544 1.82182 1.7238 2.22855 1.44675C2.63529 1.1697 3.09698 0.967245 3.61364 0.839377C4.1303 0.700854 4.65245 0.631592 5.1801 0.631592C5.7957 0.631592 6.37281 0.711509 6.91146 0.871344C7.46109 1.02052 7.93928 1.24962 8.34601 1.55864C8.76373 1.86765 9.09351 2.25125 9.33535 2.70945C9.57719 3.15699 9.69811 3.67912 9.69811 4.27583H7.63698C7.58201 3.54059 7.32368 3.02379 6.86199 2.72543C6.4003 2.41642 5.81218 2.26191 5.09766 2.26191C4.85582 2.26191 4.60848 2.28855 4.35565 2.34183C4.10282 2.38445 3.87197 2.46437 3.66311 2.58158C3.45424 2.68814 3.27836 2.83732 3.13545 3.02912C3.00354 3.22092 2.93759 3.46067 2.93759 3.74838C2.93759 4.15329 3.064 4.47297 3.31683 4.70739C3.58066 4.93116 3.92144 5.10165 4.33916 5.21886C4.38313 5.22952 4.55352 5.27747 4.85032 5.36271C5.15812 5.4373 5.49889 5.52255 5.87264 5.61845C6.2464 5.71435 6.60916 5.81025 6.96092 5.90615C7.32368 5.9914 7.58201 6.05533 7.73591 6.09796C8.12066 6.21517 8.45594 6.375 8.74175 6.57746C9.02756 6.77992 9.2639 7.01435 9.45078 7.28074C9.64865 7.53647 9.79155 7.81352 9.87949 8.11188C9.97843 8.41024 10.0279 8.7086 10.0279 9.00696C10.0279 9.6463 9.89049 10.1951 9.61567 10.6533C9.35184 11.1008 9.00008 11.4684 8.56037 11.7561C8.12066 12.0438 7.62049 12.2516 7.05986 12.3795C6.49923 12.518 5.92761 12.5873 5.34499 12.5873C4.67444 12.5873 4.04236 12.5073 3.44875 12.3475C2.85514 12.1877 2.33848 11.9426 1.89877 11.6123C1.45906 11.2819 1.1073 10.861 0.843471 10.3496C0.579646 9.82745 0.442237 9.21474 0.431244 8.51147H2.49238Z" fill="#003057"/>
</svg>
